<?xml version="1.0" standalone="no"?>
<!DOCTYPE svg PUBLIC "-//W3C//DTD SVG 20010904//EN"
 "http://www.w3.org/TR/2001/REC-SVG-20010904/DTD/svg10.dtd">
<svg version="1.0" xmlns="http://www.w3.org/2000/svg"
 width="2551.000000pt" height="1825.000000pt" viewBox="0 0 2551.000000 1825.000000"
 preserveAspectRatio="xMidYMid meet">

<g transform="translate(0.000000,1825.000000) scale(0.100000,-0.100000)"
fill="#000000" stroke="none">
<path d="M13195 14530 c-462 -143 -861 -266 -887 -274 l-47 -15 -282 265
c-155 145 -285 263 -289 262 -4 -2 -276 -277 -604 -613 l-596 -610 70 -67 c38
-38 73 -68 78 -68 4 0 243 241 530 535 288 294 527 535 531 535 15 0 332 -303
324 -310 -4 -4 -115 -40 -245 -80 -253 -78 -290 -97 -322 -164 -20 -42 -21
-106 -2 -151 49 -117 344 -267 610 -310 202 -33 381 -16 734 69 125 31 258 60
296 67 85 14 225 7 289 -16 26 -10 51 -15 53 -12 10 9 -69 56 -128 77 -139 49
-253 50 -614 4 -233 -29 -434 -34 -554 -14 -173 29 -520 183 -460 204 8 3 283
84 610 180 327 96 845 249 1150 341 l554 165 181 -178 c99 -98 397 -391 661
-650 l482 -472 -287 -272 c-157 -149 -378 -360 -491 -468 l-205 -197 -643 604
-643 605 -100 -43 c-55 -23 -98 -46 -97 -50 2 -4 366 -348 811 -765 444 -416
807 -761 807 -765 0 -4 -64 -73 -142 -153 l-143 -146 -130 104 c-71 58 -341
261 -599 452 -375 277 -472 345 -485 337 -9 -6 -16 -14 -16 -20 0 -5 152 -169
338 -363 l338 -354 -69 -69 -69 -69 -402 297 c-238 175 -409 294 -417 291 -8
-3 -14 -12 -14 -20 0 -9 153 -176 340 -373 l341 -357 -84 -84 -85 -84 -393
287 c-217 159 -400 288 -408 289 -8 1 -16 -4 -18 -11 -2 -6 146 -170 329 -364
183 -194 333 -356 333 -360 0 -4 -63 -71 -139 -149 l-139 -141 -177 178 c-97
98 -652 660 -1232 1248 l-1055 1070 -392 264 c-216 144 -395 260 -398 257 -3
-3 302 -317 679 -698 376 -381 1109 -1124 1628 -1650 519 -527 947 -958 950
-958 3 0 222 224 487 498 265 273 503 518 530 544 l48 47 200 -155 200 -155
277 283 c153 156 278 288 278 294 0 5 -60 66 -134 135 -73 68 -134 128 -135
132 -1 4 51 56 116 115 506 459 1043 955 1043 961 0 18 -1574 1556 -1594 1558
-12 1 -399 -114 -861 -257z"/>
<path d="M20815 9979 c-269 -25 -533 -114 -740 -249 -456 -299 -738 -783 -826
-1420 -20 -144 -17 -497 5 -645 77 -508 297 -943 621 -1228 113 -99 285 -215
395 -265 468 -215 1080 -217 1528 -5 219 104 479 334 625 553 172 260 285 573
334 925 21 153 21 484 -1 644 -85 632 -363 1126 -806 1430 -310 213 -695 301
-1135 260z m406 -95 c256 -52 475 -218 661 -499 492 -742 503 -2075 22 -2797
-156 -235 -345 -382 -581 -455 -81 -25 -101 -27 -263 -27 -162 0 -182 2 -265
28 -179 54 -311 134 -450 271 -196 193 -344 449 -450 777 -197 613 -184 1345
35 1899 109 276 297 520 505 657 222 146 520 201 786 146z"/>
<path d="M5469 9960 c-185 -18 -349 -65 -509 -145 -283 -143 -481 -370 -567
-652 -24 -80 -27 -103 -27 -248 0 -146 3 -168 28 -250 32 -106 77 -192 154
-295 137 -183 320 -327 742 -585 188 -115 462 -296 570 -376 165 -124 306
-293 366 -439 117 -288 -19 -618 -317 -775 -185 -97 -401 -131 -669 -106 -365
35 -574 136 -719 346 -105 151 -182 357 -196 518 -12 139 -11 137 -55 137
l-40 0 0 -94 c0 -159 39 -313 118 -471 164 -327 398 -470 847 -516 147 -15
435 -7 558 16 481 88 827 372 933 765 21 81 25 272 6 350 -22 88 -105 248
-178 338 -105 132 -316 303 -609 497 -77 50 -226 149 -332 218 -214 141 -442
309 -533 394 -124 114 -228 281 -266 423 -20 78 -23 215 -5 290 53 224 252
425 510 515 457 160 985 6 1200 -349 67 -111 104 -230 123 -390 l11 -98 41 6
c22 4 42 8 43 10 8 8 -20 223 -38 292 -45 176 -156 351 -291 458 -125 100
-320 180 -499 205 -112 15 -304 20 -400 11z"/>
<path d="M12620 9930 c0 -3 52 -27 115 -54 l116 -48 802 -2 c909 -1 845 4
1032 -86 273 -131 459 -400 520 -747 19 -111 19 -316 0 -429 -40 -226 -122
-390 -270 -539 -116 -117 -209 -172 -346 -205 -83 -20 -116 -20 -2101 -20
-1167 0 -2018 4 -2018 9 0 8 434 1429 446 1461 4 8 71 -178 150 -414 87 -259
158 -454 180 -493 79 -141 230 -266 385 -317 99 -33 229 -47 229 -25 -1 8
-144 439 -318 959 l-318 945 -109 3 -110 3 -550 -1798 c-302 -989 -570 -1867
-596 -1950 l-47 -153 57 0 57 0 254 838 255 837 506 3 507 2 119 -352 c66
-194 193 -572 282 -840 l163 -488 259 0 c142 0 259 1 259 3 0 2 -126 378 -280
836 -154 458 -280 834 -280 837 0 2 284 4 630 4 l630 0 0 -840 0 -840 245 0
245 0 0 835 0 835 332 -2 333 -3 481 -830 482 -830 282 -3 283 -2 -15 22 c-58
91 -1019 1700 -1016 1702 1 2 26 9 53 16 83 22 215 79 295 126 180 107 312
250 405 439 68 139 95 238 102 386 12 243 -52 463 -195 664 -158 225 -438 410
-734 485 -199 51 -207 52 -723 56 -939 8 -1465 9 -1465 4z"/>
<path d="M6880 9880 l0 -50 625 0 625 0 0 -1900 0 -1900 245 0 245 0 0 1900 0
1900 918 0 917 0 140 42 c77 23 144 45 150 50 5 4 -863 8 -1928 8 l-1937 0 0
-50z"/>
<path d="M16680 7980 l0 -1950 250 0 250 0 2 972 3 972 554 -782 c492 -695
564 -792 642 -867 185 -175 412 -277 654 -292 l99 -6 -18 29 c-11 16 -373 538
-805 1159 -431 622 -785 1137 -785 1145 0 9 301 361 669 784 369 422 672 772
674 777 2 6 -21 9 -57 7 l-61 -3 -746 -855 c-411 -470 -765 -873 -786 -895
l-39 -40 0 898 0 897 -250 0 -250 0 0 -1950z"/>
</g>
</svg>
