<?xml version="1.0" standalone="no"?>
<!DOCTYPE svg PUBLIC "-//W3C//DTD SVG 20010904//EN"
 "http://www.w3.org/TR/2001/REC-SVG-20010904/DTD/svg10.dtd">
<svg version="1.0" xmlns="http://www.w3.org/2000/svg"
 width="300.000000pt" height="69.000000pt" viewBox="0 0 300.000000 69.000000"
 preserveAspectRatio="xMidYMid meet">

<g transform="translate(0.000000,69.000000) scale(0.100000,-0.100000)"
fill="#000000" stroke="none">
<path d="M1238 673 c-9 -10 -34 -55 -57 -101 -25 -50 -50 -86 -64 -92 -12 -6
-62 -16 -111 -23 -128 -18 -131 -27 -33 -125 87 -88 87 -86 62 -217 -9 -43
-13 -85 -11 -92 9 -23 44 -14 137 32 l90 46 104 -52 c56 -28 108 -48 114 -45
13 9 14 49 2 113 -25 130 -29 117 59 208 44 45 80 87 80 93 0 19 -31 29 -125
42 -49 6 -96 16 -103 23 -8 6 -31 45 -52 86 -21 42 -46 86 -57 99 -18 23 -19
23 -35 5z m63 -296 c47 -36 51 -97 10 -138 -37 -37 -79 -38 -120 -3 -41 34
-43 86 -4 126 29 31 84 38 114 15z"/>
<path d="M135 481 c-54 -13 -92 -39 -109 -75 -21 -44 -20 -64 4 -103 23 -38
51 -54 146 -82 39 -11 78 -29 87 -39 35 -38 12 -87 -47 -103 -56 -16 -96 2
-129 57 -21 35 -32 45 -50 42 -17 -2 -23 -10 -25 -40 -10 -124 224 -178 317
-72 26 30 31 43 31 89 0 74 -30 103 -137 134 -103 30 -123 44 -123 82 0 25 6
32 35 45 52 22 94 7 128 -44 16 -23 34 -42 41 -42 20 0 36 22 36 51 0 41 -35
77 -92 94 -56 16 -67 17 -113 6z"/>
<path d="M2152 478 c-17 -17 -17 -439 0 -456 36 -36 68 3 68 81 0 57 2 64 37
99 l37 37 31 -47 c17 -26 46 -72 63 -103 40 -70 55 -83 87 -75 42 11 32 49
-45 167 -38 59 -70 112 -70 118 0 7 27 39 60 73 60 63 70 84 48 106 -25 25
-48 9 -144 -99 l-99 -112 -5 99 c-3 55 -9 105 -13 112 -10 15 -39 16 -55 0z"/>
<path d="M2695 471 c-85 -38 -119 -112 -113 -241 4 -92 27 -140 86 -183 39
-28 50 -31 117 -31 66 0 79 3 116 29 64 45 88 101 88 205 1 93 -17 147 -60
187 -58 53 -160 68 -234 34z m156 -74 c40 -27 58 -71 58 -147 1 -129 -85 -203
-179 -155 -43 22 -70 82 -70 154 0 73 11 105 51 142 39 37 91 39 140 6z"/>
<path d="M458 469 c-27 -15 -22 -48 8 -59 14 -6 47 -10 74 -10 l50 0 2 -186
c3 -165 5 -188 21 -198 12 -8 22 -8 35 0 15 10 17 33 20 198 l2 186 50 0 c27
0 60 4 74 10 31 11 35 45 7 60 -25 13 -320 13 -343 -1z"/>
<path d="M1682 468 c-9 -9 -12 -72 -12 -224 0 -178 2 -214 15 -224 12 -10 21
-10 40 -2 24 11 25 15 25 107 l0 95 35 0 c45 0 68 -22 125 -122 44 -78 63 -94
94 -82 36 14 6 101 -60 174 l-36 39 35 15 c93 38 96 177 6 223 -32 17 -250 18
-267 1z m213 -60 c46 -21 46 -95 0 -116 -14 -7 -53 -12 -85 -12 l-60 0 0 70 0
70 60 0 c32 0 71 -5 85 -12z"/>
</g>
</svg>
